<svg xmlns="http://www.w3.org/2000/svg" viewBox="0 0 32 32" id="PrayingHand">
  <path fill="#fcfbf7" d="M3.5 26.5v-1.86a2.184 2.184 0 0 0-.13-.72l-2.4-6.2a7.05 7.05 0 0 1-.47-2.53V10A1.498 1.498 0 0 1 2 8.5a1.468 1.468 0 0 1 1 .39V4a1.5 1.5 0 0 1 3 0V2a1.5 1.5 0 0 1 3 0v1a1.5 1.5 0 0 1 3 0v2a1.5 1.5 0 0 1 3 0v12.756a20 20 0 0 1-.302 3.462l-.943 5.364Z" class="colorffdaa7 svgShape"></path>
  <path fill="#1b1b1b" d="M6 10a.5.5 0 0 1-.5-.5V4a1 1 0 0 0-2 0v4.89a.5.5 0 0 1-1 0V4a2 2 0 0 1 4 0v5.5a.5.5 0 0 1-.5.5Z" class="color2c2b2d svgShape"></path>
  <path fill="#1b1b1b" d="M9 10a.5.5 0 0 1-.5-.5V2a1 1 0 0 0-2 0v7.5a.5.5 0 0 1-1 0V2a2 2 0 0 1 4 0v7.5a.5.5 0 0 1-.5.5Z" class="color2c2b2d svgShape"></path>
  <path fill="#1b1b1b" d="M12 11a.5.5 0 0 1-.5-.5V3a1 1 0 0 0-2 0v7.5a.5.5 0 0 1-1 0V3a2 2 0 0 1 4 0v7.5a.5.5 0 0 1-.5.5Z" class="color2c2b2d svgShape"></path>
  <path fill="#1b1b1b" d="M15 13a.5.5 0 0 1-.5-.5V5a1 1 0 0 0-2 0v7.5a.5.5 0 0 1-1 0V5a2 2 0 0 1 4 0v7.5a.5.5 0 0 1-.5.5Z" class="color2c2b2d svgShape"></path>
  <path fill="#1b1b1b" d="M13.757 27.082a.534.534 0 0 1-.088-.008.5.5 0 0 1-.405-.579l.942-5.364a19.521 19.521 0 0 0 .294-3.375V12.5a.5.5 0 0 1 1 0v5.256a20.542 20.542 0 0 1-.31 3.548l-.942 5.364a.499.499 0 0 1-.491.414zM3.5 27a.5.5 0 0 1-.5-.5v-1.86a1.49 1.49 0 0 0-.102-.541L.504 17.897A7.469 7.469 0 0 1 0 15.195V10a2 2 0 0 1 4 0v4.19l1.04.52A5.325 5.325 0 0 1 8 19.5a.5.5 0 0 1-1 0 4.331 4.331 0 0 0-2.407-3.895l-1.317-.658A.501.501 0 0 1 3 14.5V10a1 1 0 0 0-2 0v5.195a6.479 6.479 0 0 0 .437 2.342l2.395 6.201A2.498 2.498 0 0 1 4 24.64V26.5a.5.5 0 0 1-.5.5z" class="color2c2b2d svgShape"></path>
  <rect width="12" height="5" x="3" y="26.5" fill="#e5b222" rx="1" class="color3f6db4 svgShape"></rect>
  <path fill="#1b1b1b" d="M14 32H4a1.502 1.502 0 0 1-1.5-1.5v-3A1.502 1.502 0 0 1 4 26h10a1.502 1.502 0 0 1 1.5 1.5v3A1.502 1.502 0 0 1 14 32ZM4 27a.5.5 0 0 0-.5.5v3a.5.5 0 0 0 .5.5h10a.5.5 0 0 0 .5-.5v-3a.5.5 0 0 0-.5-.5Z" class="color2c2b2d svgShape"></path>
  <path fill="#fcfbf7" d="M28.5 26.5v-1.86a2.184 2.184 0 0 1 .13-.72l2.4-6.2a7.05 7.05 0 0 0 .47-2.53V10A1.498 1.498 0 0 0 30 8.5a1.468 1.468 0 0 0-1 .39V4a1.5 1.5 0 0 0-3 0V2a1.5 1.5 0 0 0-3 0v1a1.5 1.5 0 0 0-3 0v2a1.5 1.5 0 0 0-3 0v12.756a20 20 0 0 0 .302 3.462l.943 5.364Z" class="colorffdaa7 svgShape"></path>
  <path fill="#1b1b1b" d="M26 10a.5.5 0 0 0 .5-.5V4a1 1 0 0 1 2 0v4.89a.5.5 0 1 0 1 0V4a2 2 0 0 0-4 0v5.5a.5.5 0 0 0 .5.5Z" class="color2c2b2d svgShape"></path>
  <path fill="#1b1b1b" d="M23 10a.5.5 0 0 0 .5-.5V2a1 1 0 0 1 2 0v7.5a.5.5 0 0 0 1 0V2a2 2 0 0 0-4 0v7.5a.5.5 0 0 0 .5.5Z" class="color2c2b2d svgShape"></path>
  <path fill="#1b1b1b" d="M20 11a.5.5 0 0 0 .5-.5V3a1 1 0 0 1 2 0v7.5a.5.5 0 0 0 1 0V3a2 2 0 0 0-4 0v7.5a.5.5 0 0 0 .5.5Z" class="color2c2b2d svgShape"></path>
  <path fill="#1b1b1b" d="M17 13a.5.5 0 0 0 .5-.5V5a1 1 0 0 1 2 0v7.5a.5.5 0 0 0 1 0V5a2 2 0 0 0-4 0v7.5a.5.5 0 0 0 .5.5Z" class="color2c2b2d svgShape"></path>
  <path fill="#1b1b1b" d="M18.243 27.082a.534.534 0 0 0 .088-.008.5.5 0 0 0 .405-.579l-.942-5.364a19.521 19.521 0 0 1-.294-3.375V12.5a.5.5 0 0 0-1 0v5.256a20.542 20.542 0 0 0 .31 3.548l.942 5.364a.499.499 0 0 0 .491.414zM28.5 27a.5.5 0 0 0 .5-.5v-1.86a1.49 1.49 0 0 1 .102-.541l2.394-6.202A7.469 7.469 0 0 0 32 15.195V10a2 2 0 0 0-4 0v4.19l-1.04.52A5.325 5.325 0 0 0 24 19.5a.5.5 0 0 0 1 0 4.331 4.331 0 0 1 2.407-3.895l1.317-.658A.501.501 0 0 0 29 14.5V10a1 1 0 0 1 2 0v5.195a6.479 6.479 0 0 1-.437 2.342l-2.395 6.201a2.498 2.498 0 0 0-.168.901V26.5a.5.5 0 0 0 .5.5z" class="color2c2b2d svgShape"></path>
  <rect width="12" height="5" x="17" y="26.5" fill="#e5b222" rx="1" transform="rotate(180 23 29)" class="color3f6db4 svgShape"></rect>
  <path fill="#1b1b1b" d="M18 32h10a1.502 1.502 0 0 0 1.5-1.5v-3A1.502 1.502 0 0 0 28 26H18a1.502 1.502 0 0 0-1.5 1.5v3A1.502 1.502 0 0 0 18 32Zm10-5a.5.5 0 0 1 .5.5v3a.5.5 0 0 1-.5.5H18a.5.5 0 0 1-.5-.5v-3a.5.5 0 0 1 .5-.5Z" class="color2c2b2d svgShape"></path>
</svg>
